<svg id="Layer_1" data-name="Layer 1" xmlns="http://www.w3.org/2000/svg" viewBox="0 0 241.56 52.53"><defs><style>.cls-1{fill:#dc0050;}</style></defs><title>lookbook</title><path class="cls-1" d="M1.58,59.54A6.09,6.09,0,0,1,0,55.8c0-2.16,1.08-5.33,4.1-10C14.69,29.52,22.32,18.43,28,10.44c.58-.8.94-.94,1.87-.36A31.63,31.63,0,0,1,32.55,12c1.65,1.37,2.59,2.81-.44,7.7C28.66,25.34,17.71,41.9,13.54,48,10.37,52.78,9.15,55.44,9,57c3.89-.64,8.35-3.45,14.19-11.23l.21-.29c.51-.65.65-.72.87-.5l.21.21a1,1,0,0,1,.15,1.37l-.22.36C21.39,52,14,62.06,6.62,62.06A5.64,5.64,0,0,1,1.58,59.54Z" transform="translate(0 -9.53)"/><path class="cls-1" d="M22.18,57.82c-3.24-3.68-3.75-8.57.93-14.84,4-5.25,11.24-9.57,15.48-9.57A7.79,7.79,0,0,1,43,34.49c2.08,1.29,2.59,2.08,2.59,2.52,0,.28-.07.5-.79.93a8,8,0,0,1,1.51,4.9,15.84,15.84,0,0,1-.15,1.94c4.11-.65,8.07-3.31,11.38-6.62l.29-.29c.58-.58.79-.5,1-.22l.14.22a.89.89,0,0,1-.07,1.22l-.29.36c-2.81,3.46-8.06,7.78-13.46,8.72-2.52,6.26-8.79,12.89-15.92,12.89A8.81,8.81,0,0,1,22.18,57.82Zm18.65-9.65a5.46,5.46,0,0,1-4.32-5.12c-4.54,3.68-8,8.28-7.49,12.82C33.34,55.44,38,52.06,40.83,48.17ZM42.7,39c-1.15.65-2.38,1.37-3.6,2.16.14,2,1.22,3.24,3.6,3.6a8.28,8.28,0,0,0,.65-3.09A4.42,4.42,0,0,0,42.7,39Z" transform="translate(0 -9.53)"/><path class="cls-1" d="M50.69,58a9.4,9.4,0,0,1-2.52-6.41,13.75,13.75,0,0,1,3.17-8.28c3.6-4.82,9.72-9.58,14.61-9.58,2.38,0,5.11,1.37,6,2.88,2,.72,3,3,3,5.55a19.44,19.44,0,0,1-3,9.14c-3.46,6-8.71,9.94-14.26,9.94A9.1,9.1,0,0,1,50.69,58Zm6.91-1.87C64.8,54.22,72,46.15,72,40.53c0-1-.36-1.8-1-2-3.31,1.08-7.77,5.11-11.23,10.58C58.18,51.55,57.24,54,57.6,56.09Z" transform="translate(0 -9.53)"/><path class="cls-1" d="M90,49.61A51.22,51.22,0,0,0,85.68,54c-5.26,6.19-6.26,5.83-10.3,5.62-2.23-.08-3.67-.72-.21-7.78a61.24,61.24,0,0,1,3.45-6.05C86,34.34,97.78,16.05,101.09,10.65c.58-.93.86-1,1.51-.86a11.91,11.91,0,0,1,4.54,2.09c1.51,1.44.72,4.6-1.08,7.77-2.88,5-7.85,12.68-15.7,24.84,7-5.18,11.81-7.56,18.51-14.61.57-.65,1.15.21,1.15,1.51,0,1.73-.79,2.74-2.45,4.32a61.27,61.27,0,0,1-7.06,5.76c-1.58,5.4-2,9.58-1.29,11.88,1.94-.14,4.39-1.15,7.27-3.45.22-.22.5-.08.43.28a10.6,10.6,0,0,1-1.15,2.74,13,13,0,0,1-2.3,2.38c-3.68,3-6.7,4.68-8.72,4.68C91,60,89.71,57.1,90,49.61Z" transform="translate(0 -9.53)"/><path class="cls-1" d="M125,57.38c-1.51,2.31-2,2.74-2.81,2.74-1.65,0-4.75-2.66-5.18-4.46-.29-1.37.29-3.39,4.46-9.87,8.93-13.68,16.06-24,22-35.71a.91.91,0,0,1,1.29-.44c3.17,1.44,5.84,2.24,5.84,5,0,3.82-2.53,7.64-10.52,19.81,2.81-.44,4.54-.22,6.12.72,2.67,1.8,3.24,5.25,2.81,8.42a17.28,17.28,0,0,0,11.09-5.47l.29-.29c.57-.58.79-.5,1-.22l.14.22a.89.89,0,0,1-.07,1.22l-.29.36c-3.53,4.4-7.92,5.84-12.6,6.56a13.75,13.75,0,0,1-1.08,2.88C143.42,57.1,136.58,61.2,130.1,61.2,128.23,61.2,126.65,59.76,125,57.38Zm8.86-5.4a22.9,22.9,0,0,0,5.9-4.82A23.43,23.43,0,0,0,132.48,49c-2.09,1-3.67,2.59-5.47,5.26A18.67,18.67,0,0,0,133.85,52ZM142,44.21a11.36,11.36,0,0,0,2-6.41c-3.46.57-8.21,3-12,7.92C134.57,44.64,137.59,44.42,142,44.21Z" transform="translate(0 -9.53)"/><path class="cls-1" d="M153.21,57.82c-3.24-3.68-3.74-8.57.94-14.84,4-5.25,11.23-9.57,15.48-9.57A7.76,7.76,0,0,1,174,34.49c2.09,1.29,2.6,2.08,2.6,2.52,0,.28-.08.5-.8.93a7.93,7.93,0,0,1,1.52,4.9,18.1,18.1,0,0,1-.15,1.94c4.11-.65,8.07-3.31,11.38-6.62l.29-.29c.57-.58.79-.5,1-.22l.15.22a.89.89,0,0,1-.07,1.22l-.29.36c-2.81,3.46-8.07,7.78-13.47,8.72-2.52,6.26-8.78,12.89-15.91,12.89A8.83,8.83,0,0,1,153.21,57.82Zm18.65-9.65a5.48,5.48,0,0,1-4.32-5.12c-4.53,3.68-8,8.28-7.49,12.82C164.37,55.44,169.06,52.06,171.86,48.17ZM173.73,39c-1.15.65-2.37,1.37-3.59,2.16.14,2,1.22,3.24,3.59,3.6a8.09,8.09,0,0,0,.65-3.09A4.35,4.35,0,0,0,173.73,39Z" transform="translate(0 -9.53)"/><path class="cls-1" d="M181.72,58a9.44,9.44,0,0,1-2.52-6.41,13.81,13.81,0,0,1,3.17-8.28c3.6-4.82,9.72-9.58,14.62-9.58,2.38,0,5.11,1.37,6,2.88,2,.72,3,3,3,5.55a19.56,19.56,0,0,1-3,9.14c-3.46,6-8.71,9.94-14.26,9.94A9.13,9.13,0,0,1,181.72,58Zm6.92-1.87c7.2-1.87,14.4-9.94,14.4-15.56,0-1-.36-1.8-1-2-3.31,1.08-7.78,5.11-11.23,10.58C189.21,51.55,188.28,54,188.64,56.09Z" transform="translate(0 -9.53)"/><path class="cls-1" d="M209.8,60.7a6.89,6.89,0,0,1-3.09-1.16A4.15,4.15,0,0,1,204.48,56c0-1.8.57-3,5.18-10.23,11.81-18.22,17.57-27.22,22.11-34.49.86-1.37,1.36-1.8,2.16-1.3a20.11,20.11,0,0,1,3.67,2.67c1.51,1.58,1.37,4.39-.58,7.63-3.53,5.62-9.36,14-15.12,23.47,4.75-4,10.44-7.84,19.08-13,.22-.14.58-.21.58.15a5,5,0,0,1-.58,1.65c-.64,1.3-1,2.16-3.45,3.89-1.95,1.37-3.82,2.74-5.76,4.25a35.23,35.23,0,0,0-2.16,10.94,7,7,0,0,0,.21,1.8c2-.36,4.75-1.65,7.71-4.46.21-.22.5-.15.43.21a10.58,10.58,0,0,1-1.23,2.89,23,23,0,0,1-2.23,2.66c-2.66,2.66-6.26,4.9-8.71,4.9a5.81,5.81,0,0,1-2.95-.72c-2.31-1.3-2.38-4-1.8-8.79-2.38,2.38-4.76,5-7.06,7.78C212.69,59.47,211.46,60.7,209.8,60.7Z" transform="translate(0 -9.53)"/></svg>