<svg id="Layer_1" data-name="Layer 1" xmlns="http://www.w3.org/2000/svg" viewBox="0 0 319.21 172.54"><defs><style>.cls-1{isolation:isolate;}.cls-2{fill:#dc0050;stroke:#fff;stroke-miterlimit:10;stroke-width:2px;}</style></defs><title>sidebar-title2</title><g class="cls-1"><g class="cls-1"><path class="cls-2" d="M2,106.9c-1.84-.49-2.46-1.72-1.6-3.19a84.48,84.48,0,0,1,7-8.74C3.58,92.63,3,91.4,4.44,89.07,11.7,77.75,31.75,48.23,42.82,33c-2.21-2-3.81-5.41-5-9-.37-1.23-.25-2.09,2.58-2.95A78.58,78.58,0,0,1,62,18.09c8.37,0,14.64,1.23,19.07,3.81C89,26.45,90.55,36.66,86.25,44A44.38,44.38,0,0,1,67.06,61.88c3.81,2.58,6.39,5.78,7,10.21.86,6.27-2,12.06-7.38,17.47-10.46,10.45-31,19.07-49.95,19.07A59.92,59.92,0,0,1,2,106.9ZM65.21,72.21c-3.2-3.81-12.3-6.27-24.6-6.89-6.15,9.6-12.8,19.44-18.21,27.19C46.14,91.77,63.74,83.29,65.21,72.21ZM82.43,34.32C80.83,32.23,76.16,31,70,31a46.71,46.71,0,0,0-14.52,2.46c1,2.34,1.11,4.31.25,6.15-2.09,4.31-5.17,9.6-8.61,15.26C66.69,51.79,79.24,43.3,82.43,34.32Z" transform="translate(1 -17.09)"/><path class="cls-2" d="M79.11,97.68c-4.3-5.05-5.9-12.92,3.08-24.73,6.4-8.36,17.59-15.38,25.59-15.38a11,11,0,0,1,6.27,2.1A12,12,0,0,1,118,63.11c2.33,1.85,4.18,4.68,4.18,7.26,0,3.69-2.22,7.26-10.46,12.55-4.3,2.7-10.95,5.65-19.68,8.61a8.94,8.94,0,0,0,0,4.79,8.21,8.21,0,0,0,4.06.87c9.23,0,22.63-7.51,31.25-19l.36-.49c.87-1.11,1.11-1.23,1.48-.86l.37.37a1.61,1.61,0,0,1,.25,2.33l-.37.62c-8.49,14.15-24.11,25.46-36.54,25.46C88.22,105.67,84.4,104,79.11,97.68Zm35.43-31.25C107.78,67.91,98.67,77,94.37,85.5a71.9,71.9,0,0,0,13.9-7.38C112.82,74.8,115.77,70.74,114.54,66.43Z" transform="translate(1 -17.09)"/></g><g class="cls-1"><path class="cls-2" d="M20.43,186.9c-1.84-.49-2.46-1.72-1.6-3.19a84.92,84.92,0,0,1,7-8.74c-3.82-2.34-4.43-3.57-3-5.9,7.26-11.32,27.31-40.84,38.38-56.1-2.21-2-3.81-5.41-5-9-.37-1.23-.24-2.09,2.58-2.95a78.66,78.66,0,0,1,21.66-3c8.36,0,14.63,1.23,19.06,3.81,7.88,4.55,9.48,14.76,5.17,22.14a44.33,44.33,0,0,1-19.19,17.84c3.81,2.58,6.4,5.78,7,10.21.86,6.27-2,12.06-7.38,17.47-10.46,10.45-31,19.07-49.94,19.07A59.94,59.94,0,0,1,20.43,186.9Zm63.23-34.69c-3.19-3.81-12.3-6.27-24.6-6.89-6.15,9.6-12.79,19.44-18.21,27.19C64.6,171.77,82.19,163.29,83.66,152.21Zm17.23-37.89c-1.6-2.09-6.28-3.32-12.43-3.32A46.65,46.65,0,0,0,74,113.46c1,2.34,1.1,4.31.24,6.15-2.09,4.31-5.17,9.6-8.61,15.26C85.14,131.79,97.69,123.3,100.89,114.32Z" transform="translate(1 -17.09)"/><path class="cls-2" d="M111,182.35c-7.87-5-10.08-9.47-10.08-18.45,0-10,4.79-21.28,12.18-31.74,13.65-19.19,35.42-33.7,47-33.7A12.9,12.9,0,0,1,170.39,104c5.29,2.58,8.86,8.86,8.86,18.58,0,8-3.2,19.31-8.24,28.17-13.9,24.35-34.33,36.16-47.49,36.16C120,186.9,115.16,185.06,111,182.35Zm8.49-8.12c24.11-4.92,51.42-34.56,51.42-56,0-4.3-1.1-7.63-3.32-9.59-13,5.53-25.46,15.62-38.13,32.72C123.52,149.38,117.49,165.13,119.46,174.23Z" transform="translate(1 -17.09)"/><path class="cls-2" d="M171.75,184.94c-5.29-3.69-5.29-7-1.85-14.89,5.66-13,34.57-48.59,47.61-71.47a1.87,1.87,0,0,1,2.83-.74A22.09,22.09,0,0,1,227.6,104c1.84,2.58,1.84,5.66-2.71,13.66-7.38,13-30.14,40.84-36.91,56.21,15.75-2.21,32.36-4.06,36.91-4.06,1,0,1.11.37.86,1.24-.86,3.07-1.85,4.92-7.13,6.64-14.4,4.55-30.51,9-38.26,10.21C176.79,188.5,175.44,187.52,171.75,184.94Z" transform="translate(1 -17.09)"/><path class="cls-2" d="M225.75,178.29c-.62-2.46-.25-3.32,1.35-3.44,3.2-.12,6.15-.37,9.23-.74-2.71-3.57-3.32-5.41-1.85-7.63,13-19.68,24.36-35.79,36.79-53.14a57.47,57.47,0,0,0-5.29-8c-1.11-1.35-1.48-3.07.24-3.44a73.72,73.72,0,0,1,14.27-1.48l4.8-6.64c.86-1.11,1.72-1.23,4.8,1.85,2.09,2.09,3.69,4.18,4.18,6.27,9.1,2.21,17.22,7.26,21.16,17.35,3.57,9.22,2.09,19.8-7.26,32.72-14.52,20.17-44.29,36.53-70.61,36.53C229.56,188.5,227.47,184.81,225.75,178.29Zm85-55.23c-3.69-6.4-11.81-9.1-21.77-9.23-11.81,19.32-24.36,38.75-36.54,57.45C288.36,162.3,308.54,138.68,310.75,123.06Z" transform="translate(1 -17.09)"/></g></g></svg>